<svg width="320" height="320" viewBox="0 0 320 320" fill="none" xmlns="http://www.w3.org/2000/svg">
<style>path {fill: #000;} @media (prefers-color-scheme: dark) {path {fill:#fff;} }</style>
<path fill-rule="evenodd" clip-rule="evenodd" d="M249.701 266.605L48.0097 231.042C35.7183 228.874 27.5111 217.153 29.6784 204.862L43.0716 128.905C43.1359 128.541 43.1985 128.231 43.2929 127.873C44.7878 122.208 60.0275 68.249 106.168 35.496C119.963 25.7038 138.39 29.3532 150.696 40.9612L280.505 163.408C286.038 168.628 288.575 176.281 287.254 183.772L275.88 248.274C273.713 260.565 261.992 268.772 249.701 266.605ZM68.3123 133.911C72.6543 119.877 86.1695 83.506 114.877 61.8741C120.636 57.5343 128.569 58.5037 133.958 63.2959L242.83 160.114C247.085 163.899 243.703 170.889 238.094 169.9L72.5861 140.716C69.3828 140.152 67.3508 137.018 68.3123 133.911Z" fill="black"/>
</svg>
