<?xml version="1.0" standalone="no"?>
<!DOCTYPE svg PUBLIC "-//W3C//DTD SVG 20010904//EN"
 "http://www.w3.org/TR/2001/REC-SVG-20010904/DTD/svg10.dtd">
<svg version="1.0" xmlns="http://www.w3.org/2000/svg"
 width="700.000000pt" height="700.000000pt" viewBox="0 0 700.000000 700.000000"
 preserveAspectRatio="xMidYMid meet">
<metadata>
Created by potrace 1.14, written by Peter Selinger 2001-2017
</metadata>
<g transform="translate(0.000000,700.000000) scale(0.100000,-0.100000)"
fill="#000000" stroke="none">
<path d="M2575 6333 c-167 -32 -383 -181 -650 -448 -118 -118 -159 -164 -240
-265 -33 -41 -62 -77 -65 -80 -10 -9 -145 -203 -182 -260 -137 -213 -226 -387
-364 -705 -15 -36 -84 -223 -90 -245 -38 -141 -54 -205 -58 -237 -2 -21 -25
-153 -50 -293 -25 -140 -48 -268 -51 -285 -3 -16 -7 -39 -9 -50 -2 -11 -16
-90 -30 -175 -15 -85 -33 -189 -41 -230 -8 -41 -17 -91 -20 -110 -3 -19 -12
-71 -20 -115 -55 -306 -63 -362 -60 -425 8 -200 132 -368 324 -441 49 -18 57
-20 141 -34 25 -4 54 -9 65 -11 11 -3 36 -7 55 -10 19 -3 121 -21 225 -39 105
-19 204 -36 220 -39 17 -3 41 -7 55 -10 14 -3 52 -10 85 -15 33 -5 112 -19
175 -30 157 -28 156 -28 230 -41 36 -6 76 -13 90 -16 14 -2 40 -7 59 -10 18
-3 43 -8 55 -10 11 -2 37 -6 56 -10 19 -3 55 -9 80 -14 25 -5 61 -12 80 -15
37 -5 74 -11 255 -44 96 -17 239 -43 315 -56 14 -3 36 -7 50 -9 14 -3 41 -8
60 -10 19 -3 47 -8 63 -11 52 -10 82 -15 197 -35 63 -11 125 -22 136 -24 12
-2 37 -7 55 -10 19 -3 61 -10 94 -16 33 -6 87 -15 120 -21 60 -10 87 -15 135
-24 93 -17 261 -46 290 -51 19 -3 42 -7 50 -9 8 -2 29 -6 45 -9 48 -8 208 -36
231 -40 12 -2 37 -7 55 -10 36 -6 219 -38 464 -82 83 -14 161 -28 175 -31 59
-10 168 -11 210 -2 58 12 160 51 160 61 0 5 6 8 13 8 18 0 110 89 143 140 29
43 57 104 68 145 6 20 50 261 60 325 3 19 7 44 9 55 6 27 15 82 22 125 3 19
12 69 20 110 8 41 17 91 20 110 3 19 7 46 10 60 3 14 7 41 10 60 3 19 12 71
21 115 8 44 17 96 20 115 3 19 12 67 19 105 7 39 17 90 20 115 9 54 13 77 21
110 16 72 16 198 -1 255 -38 133 -69 175 -271 365 -126 118 -403 381 -494 467
-41 39 -91 86 -110 103 -29 27 -144 135 -350 330 -155 146 -331 312 -364 344
-129 121 -306 288 -351 331 -29 28 -109 102 -177 166 -136 129 -166 157 -348
329 -69 65 -139 131 -155 146 -124 116 -332 313 -351 332 -111 108 -298 206
-453 237 -63 13 -206 12 -276 -2z m205 -637 c60 -18 154 -75 190 -116 3 -3 46
-41 95 -85 77 -67 235 -207 271 -240 16 -15 154 -137 174 -155 9 -8 52 -46 96
-85 43 -38 105 -94 138 -124 34 -30 77 -68 96 -85 108 -95 206 -182 210 -186
3 -3 43 -39 90 -80 47 -41 103 -91 125 -111 22 -20 52 -47 66 -60 15 -13 53
-46 85 -74 32 -27 65 -57 73 -65 9 -9 54 -49 101 -90 47 -41 87 -77 90 -80 3
-3 88 -79 190 -170 102 -90 187 -166 190 -169 3 -3 39 -35 80 -71 177 -154
198 -175 209 -215 11 -41 -3 -84 -39 -120 -38 -38 -81 -40 -220 -10 -14 3 -38
7 -55 10 -16 2 -70 11 -120 20 -49 9 -103 19 -120 22 -16 2 -79 13 -140 24
-182 33 -402 71 -625 110 -63 11 -135 24 -160 29 -25 5 -58 11 -75 14 -16 2
-73 11 -125 20 -135 24 -132 23 -160 30 -14 3 -41 8 -60 10 -19 3 -84 14 -145
25 -60 11 -126 23 -145 26 -19 3 -57 10 -85 15 -68 13 -104 19 -145 26 -19 2
-69 11 -110 19 -41 8 -129 24 -195 35 -116 19 -145 24 -203 35 -15 3 -43 8
-62 10 -19 3 -55 10 -80 15 -25 5 -85 16 -135 24 -49 9 -169 30 -265 47 -96
17 -188 33 -205 35 -59 9 -120 25 -135 37 -28 21 -50 61 -50 89 0 30 33 135
83 263 17 44 32 82 32 85 1 3 9 22 18 44 9 21 17 40 17 43 0 11 162 327 204
398 74 125 215 334 246 365 3 3 29 34 59 70 117 139 329 334 408 374 62 31
158 41 223 22z"/>
</g>
</svg>
