<svg width="28" height="28" viewBox="0 0 28 28" fill="none" xmlns="http://www.w3.org/2000/svg">
<path d="M8 8H12V12H8V8Z" fill="black"/>
<path d="M16 8H20V12H16V8Z" fill="black"/>
<path d="M16 16H20V20H16V16Z" fill="black"/>
<path d="M8 16H12V20H8V16Z" fill="black"/>
<path d="M12 12H16V16H12V12Z" fill="black"/>
<path d="M24 4H19V0H24C26.2091 0 28 1.79086 28 4V9H24V4Z" fill="black"/>
<path d="M4 9V4H9V0H4C1.79086 0 0 1.79086 0 4V9H4Z" fill="black"/>
<path d="M0 19V24C0 26.2091 1.79086 28 4 28H9V24H4V19H0Z" fill="black"/>
<path d="M24 19H28V24C28 26.2091 26.2091 28 24 28H19V24H24V19Z" fill="black"/>
</svg>
