<svg width="92" height="83" viewBox="0 0 92 83" fill="none" xmlns="http://www.w3.org/2000/svg">
<path fill-rule="evenodd" clip-rule="evenodd" d="M77.7846 82.7668L6.87849 70.2642C2.52733 69.4969 -0.378014 65.3477 0.389213 60.9965L4.95852 35.0827C4.98125 34.9538 5.0034 34.8442 5.03681 34.7176C5.56559 32.7135 10.9545 13.6299 27.2637 2.02858C32.1607 -1.45486 38.7082 -0.146728 43.0645 3.9931L88.5424 47.2117C90.4867 49.0594 91.3757 51.7585 90.9099 54.3999L87.0523 76.2776C86.2851 80.6287 82.1358 83.5341 77.7846 82.7668ZM13.887 36.8585C15.4528 31.7339 20.4158 18.1657 30.946 10.4011C33.0067 8.88161 35.8198 9.27034 37.7033 11.0047L75.9208 46.1941C77.3905 47.5474 76.1863 49.9819 74.2188 49.635L15.4043 39.2644C14.2711 39.0646 13.5507 37.9589 13.887 36.8585Z" fill="black"/>
</svg>
