<svg width="28" height="28" viewBox="0 0 28 28" fill="none" xmlns="http://www.w3.org/2000/svg">
<path d="M23.0164 7.45924C23.6999 6.77582 23.6999 5.66778 23.0164 4.98436C22.333 4.30095 21.225 4.30095 20.5416 4.98436L14.0017 11.5243L7.46176 4.98436C6.77834 4.30095 5.6703 4.30095 4.98688 4.98436C4.30346 5.66778 4.30346 6.77582 4.98688 7.45924L11.5268 13.9991L4.98522 20.5407C4.3018 21.2241 4.3018 22.3322 4.98522 23.0156C5.66864 23.699 6.77667 23.699 7.46009 23.0156L14.0017 16.474L20.5432 23.0156C21.2266 23.699 22.3347 23.699 23.0181 23.0156C23.7015 22.3322 23.7015 21.2241 23.0181 20.5407L16.4765 13.9991L23.0164 7.45924Z" fill="black"/>
</svg>
