<svg width="94" height="85" viewBox="0 0 94 85" fill="none" xmlns="http://www.w3.org/2000/svg">
<path fill-rule="evenodd" clip-rule="evenodd" d="M78.5183 83.7441L7.61215 71.2414C3.261 70.4742 0.355649 66.325 1.12288 61.9738L5.69218 36.06C5.71491 35.931 5.73706 35.8214 5.77047 35.6948C6.29925 33.6908 11.6882 14.6072 27.9973 3.00585C32.8943 -0.477585 39.4419 0.830543 43.7981 4.97037L89.2761 48.1889C91.2204 50.0366 92.1093 52.7357 91.6436 55.3772L87.786 77.2548C87.0187 81.606 82.8695 84.5113 78.5183 83.7441ZM14.6206 37.8357C16.1865 32.7111 21.1494 19.143 31.6796 11.3784C33.7404 9.85888 36.5534 10.2476 38.437 11.9819L76.6545 47.1714C78.1242 48.5246 76.92 50.9592 74.9524 50.6123L16.138 40.2417C15.0048 40.0419 14.2844 38.9362 14.6206 37.8357Z" fill="#222222"/>
</svg>
