<svg width="28" height="56" viewBox="0 0 28 56" fill="none" xmlns="http://www.w3.org/2000/svg">
<path d="M7 38H3V46H7L14 50V34L7 38Z" fill="#222222"/>
<path d="M21.2725 42.0003L24.2728 39L23 37.7272L19.9997 40.7275L16.9994 37.7272L15.7266 39L18.7269 42.0003L15.7277 44.9995L17.0005 46.2723L19.9997 43.2731L22.9989 46.2723L24.2717 44.9995L21.2725 42.0003Z" fill="#222222"/>
<path fill-rule="evenodd" clip-rule="evenodd" d="M16.2752 17.291C16.8382 17.7524 17.2952 18.1032 17.8056 18.5435C20.735 15.3485 20.51 12.4553 17.3368 9.59882C16.9045 10.0156 16.4323 10.4221 16 10.8389C18.5156 13.1073 18.3051 15.2541 16.2752 17.291ZM18.8758 8.24077C19.3387 7.82694 19.8016 7.4131 20.2645 7C25.2457 11.4475 25.087 16.6243 20.7299 21C20.2806 20.6191 19.8321 20.2383 19.3828 19.8566C22.9754 16.3358 22.933 11.6663 18.8758 8.24077Z" fill="#222222"/>
<path d="M7 10H3V18H7L14 22V6L7 10Z" fill="#222222"/>
</svg>
